# xmcd
#
# Track frame offsets:
#	150
#	14608
#	34480
#	49509
#	67933
#	86437
#	102900
#	119911
#	137016
#	156995
#	172486
#	189887
#
# Disc length: 2743 seconds
#
# Revision: 1
# Processed by: cddbd v1.5.2PL0 Copyright (c) Steve Scherf et al.
# Submitted via: audiograbber 1.83.01
#
DISCID=a90ab50c
DTITLE=Deb Talan - A Bird Flies Out
DYEAR=2004
DGENRE=Country
TTITLE0=Unraveling
TTITLE1=Tell Your Story Walking
TTITLE2=How Will He Find Me
TTITLE3=Saturn's Light
TTITLE4=Comfort
TTITLE5=Big Strong Girl
TTITLE6=Sincerely
TTITLE7=Two Points
TTITLE8=Rocks and Water
TTITLE9=To the Bone
TTITLE10=Ashes on Your Eyes
TTITLE11=A Bird Flies Out
EXTD=
EXTT0=
EXTT1=
EXTT2=
EXTT3=
EXTT4=
EXTT5=
EXTT6=
EXTT7=
EXTT8=
EXTT9=
EXTT10=
EXTT11=
PLAYORDER=
